<?xml version="1.0" encoding="utf-8"?>
<!-- Generator: Adobe Illustrator 16.0.3, SVG Export Plug-In . SVG Version: 6.00 Build 0)  -->
<!DOCTYPE svg PUBLIC "-//W3C//DTD SVG 1.1//EN" "http://www.w3.org/Graphics/SVG/1.1/DTD/svg11.dtd" [
	<!ENTITY st0 "fill:#90CA7B;">
	<!ENTITY st1 "fill:#999999;">
	<!ENTITY st2 "fill:none;">
	<!ENTITY st3 "fill:#A6A8AB;">
]>
<svg version="1.1" id="Layer_1" xmlns="http://www.w3.org/2000/svg" xmlns:xlink="http://www.w3.org/1999/xlink" x="0px" y="0px"
	 width="443.504px" height="116.601px" viewBox="0 0 443.504 116.601" style="enable-background:new 0 0 443.504 116.601;"
	 xml:space="preserve">
<g>
	<polygon style="&st3;" points="106.836,17.869 106.898,18.016 106.961,17.869 	"/>
	<path style="&st3;" d="M0,0.674h7.004v33.113h0.637L44.044,0.674h9.658L15.707,35.061l40.117,40.754H45.742L7.641,36.971H7.004
		v38.844H0V0.674z"/>
	<path style="&st3;" d="M145.626,0.674h7.004v33.113h0.638L189.67,0.674h9.658l-37.996,34.387l40.119,40.754h-10.083l-38.101-38.844
		h-0.638v38.844h-7.004V0.674z"/>
	<rect x="76.346" y="0.674" style="&st3;" width="46.346" height="6.191"/>
	<polygon style="&st2;" points="85.643,53.426 113.394,53.426 99.518,20.748 	"/>
	<path style="&st1;" d="M122.313,58.59l-2.193-5.164l-17.14-40.369h-6.923L78.916,53.426l-2.629,6.189l-6.85,16.135h6.727
		l6.851-16.135h33.007l6.851,16.135h6.726L122.313,58.59z M85.643,53.426l13.875-32.678l13.876,32.678H85.643z"/>
	<path style="&st0;" d="M259.651,52.992l10.394-18.754h6.928L263.93,57.27l16.408,17.223h-9.072l-10.802-11.619
		c-5.807,7.848-12.329,12.941-22.419,12.941c-12.227,0-22.01-8.152-22.01-20.99c0-11.209,8.152-16.203,16.51-21.299
		c-4.076-4.891-8.764-10.494-8.764-17.121C223.781,6.012,232.34,0,241.919,0c8.561,0,16.304,6.113,16.304,15.285
		c0,10.395-8.049,14.777-16.1,19.156L259.651,52.992z M236.416,37.809c-6.42,3.869-13.654,8.252-13.654,16.813
		c0,9.172,7.234,15.08,16.304,15.08c7.542,0,13.351-5.195,17.325-11.107L236.416,37.809z M230.505,16.305
		c0,4.992,4.69,10.393,7.744,13.959c5.709-2.953,13.25-6.826,13.25-14.469c0-5.705-4.281-9.682-10.088-9.682
		C235.396,6.113,230.505,10.293,230.505,16.305z"/>
	<path style="&st3;" d="M356.162,62.67c-6.831,9.375-16.2,13.145-26.798,13.145c-22.011,0-37.299-15.896-37.299-37.906
		C292.065,15.896,307.354,0,329.364,0c9.781,0,18.542,3.26,24.861,11.311l-5.499,4.586C344.24,9.17,336.6,6.113,329.364,6.113
		c-18.854,0-30.571,13.857-30.571,31.795c0,17.934,11.718,31.793,30.571,31.793c7.235,0,16.204-3.465,21.295-11.211L356.162,62.67z"
		/>
	<path style="&st3;" d="M406.206,0c22.011,0,37.298,15.896,37.298,37.908c0,22.01-15.287,37.906-37.298,37.906
		s-37.299-15.896-37.299-37.906C368.907,15.896,384.195,0,406.206,0z M406.206,69.701c18.854,0,30.571-13.859,30.571-31.793
		c0-17.938-11.718-31.795-30.571-31.795s-30.571,13.857-30.571,31.795C375.635,55.842,387.353,69.701,406.206,69.701z"/>
</g>
<g>
	<path style="&st3;" d="M27.206,99.176h10.393v1.439H28.79v6.049h8.257v1.44H28.79v6.624h9.193v1.44H27.206V99.176z"/>
	<path style="&st3;" d="M49.118,107.24l-5.809-8.064h1.873l4.896,6.912l4.825-6.912h1.896l-5.76,8.064l6.313,8.929h-1.969
		l-5.376-7.681l-5.377,7.681h-1.896L49.118,107.24z"/>
	<path style="&st3;" d="M63.302,99.176h4.896c2.4,0,5.473,0.936,5.473,4.488c0,3.072-2.448,4.44-5.112,4.44h-3.673v8.064h-1.584
		V99.176z M64.886,106.664h3.601c1.8,0,3.601-0.768,3.601-3c0-2.185-1.872-3.049-3.696-3.049h-3.505V106.664z"/>
	<path style="&st3;" d="M80.678,99.176H91.07v1.439h-8.809v6.049h8.257v1.44h-8.257v6.624h9.193v1.44H80.678V99.176z"/>
	<path style="&st3;" d="M98.509,99.176h4.465c1.344,0,6.048,0,6.048,4.464c0,3.24-2.472,4.129-4.344,4.368l4.944,8.161h-1.801
		l-4.776-8.064h-2.952v8.064h-1.584V99.176z M100.093,106.664h3.36c3.337,0,3.984-1.848,3.984-3.024
		c0-1.176-0.647-3.024-3.984-3.024h-3.36V106.664z"/>
	<path style="&st3;" d="M116.341,99.176h1.584v16.993h-1.584V99.176z"/>
	<path style="&st3;" d="M126.181,99.176h10.393v1.439h-8.809v6.049h8.257v1.44h-8.257v6.624h9.193v1.44h-10.777V99.176z"/>
	<path style="&st3;" d="M144.013,99.176h2.04l10.345,14.881h0.049V99.176h1.584v16.993h-2.04l-10.346-14.881h-0.048v14.881h-1.584
		V99.176z"/>
	<path style="&st3;" d="M170.053,100.615h-5.809v-1.439h13.201v1.439h-5.809v15.554h-1.584V100.615z"/>
	<path style="&st3;" d="M183.66,99.176h1.584v16.993h-1.584V99.176z"/>
	<path style="&st3;" d="M198.709,99.176h1.632l7.152,16.993h-1.776l-1.848-4.513h-9.001l-1.92,4.513h-1.656L198.709,99.176z
		 M199.452,100.903l-3.96,9.313h7.801L199.452,100.903z"/>
	<path style="&st3;" d="M213.54,99.176h1.584v15.553h7.921v1.44h-9.505V99.176z"/>
	<path style="&st3;" d="M238.812,99.176h2.376l6.192,14.257l6.193-14.257h2.256v16.993h-1.584v-14.978h-0.048l-6.48,14.978h-0.696
		l-6.577-14.978h-0.048v14.978h-1.584V99.176z"/>
	<path style="&st3;" d="M269.124,99.176h1.632l7.152,16.993h-1.776l-1.848-4.513h-9.001l-1.92,4.513h-1.656L269.124,99.176z
		 M269.867,100.903l-3.96,9.313h7.801L269.867,100.903z"/>
	<path style="&st3;" d="M283.955,99.176h4.465c1.344,0,6.048,0,6.048,4.464c0,3.24-2.472,4.129-4.344,4.368l4.944,8.161h-1.801
		l-4.776-8.064h-2.952v8.064h-1.584V99.176z M285.539,106.664h3.36c3.337,0,3.984-1.848,3.984-3.024
		c0-1.176-0.647-3.024-3.984-3.024h-3.36V106.664z"/>
	<path style="&st3;" d="M301.787,99.176h1.584v7.488h0.145l8.232-7.488h2.185l-8.593,7.776l9.072,9.217h-2.28l-8.616-8.785h-0.145
		v8.785h-1.584V99.176z"/>
	<path style="&st3;" d="M320.051,99.176h10.393v1.439h-8.809v6.049h8.257v1.44h-8.257v6.624h9.193v1.44h-10.777V99.176z"/>
	<path style="&st3;" d="M341.651,100.615h-5.809v-1.439h13.201v1.439h-5.809v15.554h-1.584V100.615z"/>
	<path style="&st3;" d="M355.259,99.176h1.584v16.993h-1.584V99.176z"/>
	<path style="&st3;" d="M365.099,99.176h2.04l10.345,14.881h0.049V99.176h1.584v16.993h-2.04l-10.346-14.881h-0.048v14.881h-1.584
		V99.176z"/>
	<path style="&st3;" d="M401.388,115.064c-1.969,1.129-4.129,1.536-6.337,1.536c-5.185,0-8.785-3.744-8.785-8.929
		s3.601-8.929,8.785-8.929c2.521,0,4.561,0.769,6.12,2.353l-1.151,1.2c-1.032-1.248-3.12-2.112-4.969-2.112
		c-4.44,0-7.2,3.265-7.2,7.488c0,4.225,2.76,7.489,7.2,7.489c1.824,0,3.456-0.24,4.753-1.009v-5.712h-4.081V107h5.665V115.064z"/>
</g>
</svg>
